<svg height="480pt" viewBox="-80 0 480 480.00005" width="480pt" xmlns="http://www.w3.org/2000/svg"><path d="m295.976562 417.136719v-36.335938c.019532-25.695312-11.214843-50.109375-30.738281-66.816406l-78.46875-67.273437c-1.773437-1.519532-2.792969-3.738282-2.792969-6.070313v-1.28125c-.003906-2.335937 1.015626-4.558594 2.792969-6.078125l78.46875-67.257812c19.523438-16.710938 30.753907-41.125 30.738281-66.824219v-36.335938c15.585938-4.011719 25.75-18.992187 23.71875-34.957031-2.03125-15.96875-15.625-27.9257812-31.71875-27.90625h-256c-16.09375-.0195312-29.6875 11.9375-31.722656 27.90625-2.03125 15.964844 8.136719 30.945312 23.722656 34.957031v36.335938c-.019531 25.695312 11.210938 50.109375 30.734376 66.816406l78.472656 67.273437c1.773437 1.519532 2.792968 3.738282 2.792968 6.070313v1.28125c0 2.335937-1.019531 4.558594-2.792968 6.078125l-78.472656 67.257812c-19.519532 16.710938-30.75 41.125-30.734376 66.824219v36.335938c-15.585937 4.011719-25.753906 18.992187-23.722656 34.957031 2.035156 15.96875 15.628906 27.925781 31.722656 27.90625h256c16.09375.019531 29.6875-11.9375 31.71875-27.90625 2.03125-15.964844-8.132812-30.945312-23.71875-34.957031zm-256-26.496094c17.796876-2.25 35.097657-7.429687 51.199219-15.328125 21.328125-10.671875 44.957031-15.933594 68.800781-15.3125 23.839844-.621094 47.46875 4.640625 68.800782 15.3125 16.101562 7.898438 33.402344 13.078125 51.199218 15.328125v25.359375h-240zm-24-358.640625c0-8.835938 7.164063-16 16-16h256c8.835938 0 16 7.164062 16 16s-7.164062 16-16 16h-256c-8.835937 0-16-7.164062-16-16zm24 32h240v35.199219c.003907 12.953125-3.484374 25.667969-10.105468 36.800781h-219.785156c-6.625-11.132812-10.117188-23.847656-10.109376-36.800781zm25.144532 262.128906 78.46875-67.265625c5.324218-4.558593 8.386718-11.214843 8.386718-18.222656v-1.28125c.003907-7.003906-3.058593-13.664063-8.386718-18.214844l-78.46875-67.28125c-.6875-.582031-1.296875-1.246093-1.960938-1.863281h193.617188c-.671875.617188-1.273438 1.28125-1.96875 1.871094l-78.472656 67.265625c-5.3125 4.5625-8.367188 11.21875-8.359376 18.222656v1.28125c-.003906 7.003906 3.058594 13.664063 8.382813 18.214844l78.472656 67.28125c14.285157 12.246093 23.191407 29.617187 24.800781 48.367187-15.425781-2.242187-30.402343-6.902344-44.378906-13.808594-23.363281-11.597656-49.203125-17.328124-75.277344-16.695312-26.078124-.632812-51.914062 5.097656-75.28125 16.695312-13.972656 6.90625-28.949218 11.566407-44.375 13.808594 1.609376-18.75 10.515626-36.121094 24.800782-48.375zm222.855468 137.871094h-256c-8.835937 0-16-7.164062-16-16s7.164063-16 16-16h256c8.835938 0 16 7.164062 16 16s-7.164062 16-16 16zm0 0"/><path d="m151.976562 256h16v16h-16zm0 0"/><path d="m151.976562 288h16v16h-16zm0 0"/><path d="m151.976562 320h16v16h-16zm0 0"/></svg>