<svg id="Layer_3" enable-background="new 0 0 64 64" height="512" viewBox="0 0 64 64" width="512" xmlns="http://www.w3.org/2000/svg"><path d="m26 17c-7.168 0-13 5.832-13 13s5.832 13 13 13 13-5.832 13-13-5.832-13-13-13zm0 24c-6.065 0-11-4.935-11-11s4.935-11 11-11 11 4.935 11 11-4.935 11-11 11z"/><path d="m24.25 23.22c.568-.146 1.157-.22 1.75-.22v-2c-.761 0-1.518.095-2.249.284z"/><path d="m17 30c0 1.582.417 3.138 1.205 4.501l1.731-1.002c-.612-1.058-.936-2.269-.936-3.499 0-2.575 1.409-4.936 3.676-6.162l-.951-1.76c-2.914 1.576-4.725 4.611-4.725 7.922z"/><path d="m52 53c-1.654 0-3 1.346-3 3s1.346 3 3 3 3-1.346 3-3-1.346-3-3-3zm0 4c-.551 0-1-.448-1-1s.449-1 1-1 1 .448 1 1-.449 1-1 1z"/><path d="m40 43.586h2v2.828h-2z" transform="matrix(.707 -.707 .707 .707 -19.811 42.172)"/><path d="m45 47.172h2v5.657h-2z" transform="matrix(.707 -.707 .707 .707 -21.882 47.172)"/><path d="m63 1h-62v50h37.878l8.728 9.812c1.236 1.391 3.012 2.188 4.873 2.188 3.596 0 6.521-2.926 6.521-6.521 0-1.86-.797-3.637-2.188-4.873l-.68-.606h6.868zm-2 2v6h-58v-6zm-4 53.479c0 2.493-2.028 4.521-4.521 4.521-1.29 0-2.521-.553-3.378-1.517l-13.66-15.356c1.851-1.241 3.445-2.836 4.686-4.687l15.356 13.66c.964.857 1.517 2.088 1.517 3.379zm-31-11.479c-8.271 0-15-6.729-15-15s6.729-15 15-15 15 6.729 15 15-6.729 15-15 15zm27.883 4-12.733-11.327c1.174-2.308 1.85-4.911 1.85-7.673 0-9.374-7.626-17-17-17s-17 7.626-17 17 7.626 17 17 17c2.762 0 5.365-.676 7.673-1.851l3.426 3.851h-34.099v-38h58v38z"/><path d="m5 5h2v2h-2z"/><path d="m9 5h2v2h-2z"/><path d="m13 5h2v2h-2z"/></svg>