<?xml version="1.0" encoding="iso-8859-1"?>
<!-- Generator: Adobe Illustrator 19.0.0, SVG Export Plug-In . SVG Version: 6.00 Build 0)  -->
<svg version="1.1" id="Capa_1" xmlns="http://www.w3.org/2000/svg" xmlns:xlink="http://www.w3.org/1999/xlink" x="0px" y="0px"
	 viewBox="0 0 368 368" style="enable-background:new 0 0 368 368;" xml:space="preserve">
<g>
	<g>
		<g>
			<path d="M360,352H16V8c0-4.416-3.584-8-8-8S0,3.584,0,8v352c0,4.416,3.584,8,8,8h352c4.416,0,8-3.584,8-8
				C368,355.584,364.416,352,360,352z"/>
			<path d="M160,123.312V184c0,4.416,3.584,8,8,8h60.688l96,96H248c-4.416,0-8,3.584-8,8c0,4.416,3.584,8,8,8h96
				c1.04,0,2.08-0.216,3.056-0.616c1.952-0.808,3.512-2.368,4.328-4.328c0.4-0.976,0.616-2.016,0.616-3.056v-96c0-4.416-3.584-8-8-8
				c-4.416,0-8,3.584-8,8v76.688l-98.344-98.344C236.16,176.84,234.12,176,232,176h-56v-56c0-2.12-0.84-4.16-2.344-5.656l-96-96
				c-3.128-3.128-8.184-3.128-11.312,0s-3.128,8.184,0,11.312L160,123.312z"/>
		</g>
	</g>
</g>
<g>
</g>
<g>
</g>
<g>
</g>
<g>
</g>
<g>
</g>
<g>
</g>
<g>
</g>
<g>
</g>
<g>
</g>
<g>
</g>
<g>
</g>
<g>
</g>
<g>
</g>
<g>
</g>
<g>
</g>
</svg>
