<svg height="512pt" viewBox="-75 0 512 512" width="512pt" xmlns="http://www.w3.org/2000/svg"><path d="m155.085938 465.269531c0 14.238281 11.585937 25.820313 25.820312 25.820313 14.238281 0 25.824219-11.582032 25.824219-25.820313s-11.585938-25.824219-25.824219-25.824219c-14.234375 0-25.820312 11.585938-25.820312 25.824219zm36.644531 0c0 5.964844-4.855469 10.820313-10.824219 10.820313-5.964844 0-10.820312-4.855469-10.820312-10.820313 0-5.96875 4.855468-10.820312 10.820312-10.820312 5.96875 0 10.824219 4.851562 10.824219 10.820312zm0 0"/><path d="m328.046875 15.472656c-4.765625-9.542968-14.347656-15.472656-25.011719-15.472656h-194.066406c-4.105469 0-7.6875 3.164062-7.8125 7.269531-.125 4.246094 3.28125 7.730469 7.5 7.730469h194.378906c4.941406 0 9.382813 2.746094 11.589844 7.167969l27.566406 55.246093h-322.566406l27.566406-55.242187c2.207032-4.425781 6.648438-7.171875 11.589844-7.171875h20.65625c4.109375 0 7.6875-3.164062 7.8125-7.269531.125-4.246094-3.277344-7.730469-7.496094-7.730469h-20.972656c-10.664062 0-20.25 5.929688-25.011719 15.472656-20.140625 40.609375-30.171875 61.777344-32.949219 67.691406-.542968 1.148438-.820312 2.402344-.820312 3.671876v53.6875c0 20.78125 18.074219 38.53125 42.234375 35.15625v307.058593c0 16.160157 13.101563 29.261719 29.261719 29.261719h218.824218c16.160157 0 29.261719-13.101562 29.261719-29.261719v-125.316406c0-4.109375-3.164062-7.691406-7.269531-7.8125-4.246094-.128906-7.730469 3.277344-7.730469 7.496094v125.632812c0 7.878907-6.386719 14.261719-14.261719 14.261719h-218.824218c-7.878906 0-14.261719-6.382812-14.261719-14.261719v-312.855469c3.066406-2.085937 5.789063-4.644531 8.066406-7.5625 3.453125 4.421876 7.921875 8.007813 13.058594 10.402344v253.847656c0 4.140626 3.359375 7.5 7.5 7.5h190.09375c4.144531 0 7.5-3.359374 7.5-7.5v-253.847656c5.136719-2.394531 9.609375-5.980468 13.058594-10.402344 2.277343 2.921876 5.003906 5.476563 8.070312 7.5625v158.007813c0 4.105469 3.164063 7.6875 7.269531 7.808594 4.246094.128906 7.730469-3.273438 7.730469-7.496094v-152.523437c24.078125 3.363281 42.234375-14.300782 42.234375-35.15625v-55.609376c-.070312-3.179687 1.644532 1.960938-33.769531-69.441406zm-39.035156 124.148438c0 9.867187-6.730469 18.261718-15.941407 20.695312-13.179687 3.507813-26.859374-6.363281-26.859374-20.695312v-47.207032h42.800781zm-57.800781 0c0 11.800781-9.601563 21.398437-21.402344 21.398437-11.796875 0-21.402344-9.597656-21.402344-21.398437v-47.207032h42.804688zm-57.804688 0c0 11.800781-9.597656 21.398437-21.398438 21.398437-11.800781 0-21.402343-9.597656-21.402343-21.398437v-47.207032h42.800781zm-57.800781 0c0 12.054687-10.023438 21.8125-22.15625 21.386718-11.710938-.429687-20.648438-10.066406-20.648438-21.386718v-47.207032h42.804688zm-80.105469 21.398437c-11.304688 0-20.5-9.195312-20.5-20.5v-48.105469h42.804688v47.207032c0 8.003906-4.421876 15.28125-11.535157 18.988281-.527343.273437-1.011719.605469-1.445312.984375-4.601563 1.820312-8.253907 1.351562-9.324219 1.425781zm57.859375 258.050781v-243.050781c.492187-.113281 17.863281 1.527344 29.746094-13.699219 14.175781 18.164063 43.292969 18.59375 57.804687 0 14.171875 18.164063 43.292969 18.59375 57.800782 0 11.945312 15.304688 29.199218 13.574219 29.746093 13.699219v243.050781zm253.457031-278.550781c0 11.304688-9.195312 20.5-20.5 20.5-1-.070312-4.699218.402344-9.324218-1.425781-1.265626-1.101562-12.976563-5.945312-12.976563-19.972656v-47.207032h42.800781zm0 0"/></svg>