<svg height="459pt" viewBox="-93 0 459 459.4" width="459pt" xmlns="http://www.w3.org/2000/svg"><path d="m222.398438 0h-172.199219c-27.609375.0117188-49.988281 22.390625-50 50v359.398438c.011719 27.613281 22.390625 49.992187 50 50h172.300781c27.609375-.007813 49.988281-22.386719 50-50v-359.398438c-.09375-27.613281-22.484375-49.9609375-50.101562-50zm-202.199219 89.898438h232.300781v265.601562h-232.300781zm30-69.898438h172.300781c16.546875.046875 29.953125 13.453125 30 30v19.898438h-232.300781v-19.898438c.015625-16.5625 13.4375-29.988281 30-30zm172.199219 419.398438h-172.199219c-16.546875-.046876-29.949219-13.449219-30-30v-33.898438h232.300781v33.898438c-.09375 16.570312-13.53125 29.960937-30.101562 30zm0 0"/><path d="m106 52.601562h60.601562c5.519532 0 10-4.480468 10-10 0-5.523437-4.480468-10-10-10h-60.601562c-5.523438 0-10 4.476563-10 10 0 5.519532 4.476562 10 10 10zm0 0"/><path d="m136.300781 378.800781c-15.796875 0-28.601562 12.804688-28.601562 28.597657 0 15.796874 12.804687 28.601562 28.601562 28.601562 15.792969 0 28.597657-12.804688 28.597657-28.601562.003906-15.796876-12.800782-28.601563-28.597657-28.597657zm0 37.300781c-4.75 0-8.601562-3.851562-8.601562-8.601562s3.851562-8.601562 8.601562-8.601562 8.597657 3.851562 8.597657 8.601562-3.847657 8.601562-8.597657 8.601562zm0 0"/><path d="m109.300781 270c-15.242187 0-27.601562 12.355469-27.601562 27.601562 0 15.242188 12.359375 27.597657 27.601562 27.597657 15.242188 0 27.597657-12.355469 27.597657-27.597657-.027344-15.230468-12.367188-27.570312-27.597657-27.601562zm0 35.300781c-4.199219 0-7.601562-3.402343-7.601562-7.601562 0-4.195313 3.402343-7.597657 7.601562-7.597657 4.195313 0 7.597657 3.402344 7.597657 7.597657 0 4.199219-3.402344 7.601562-7.597657 7.601562zm0 0"/><path d="m231.101562 179.300781c-1.902343-2.503906-4.859374-3.980469-8-4h-135.300781l-2-11c-2.226562-12.328125-11.875-21.972656-24.199219-24.199219l-10.402343-1.800781c-5.4375-.96875-10.632813 2.660157-11.597657 8.097657-.96875 5.441406 2.660157 10.636718 8.097657 11.601562l10.402343 1.800781c4.09375.695313 7.300782 3.902344 8 8l14.097657 79.398438c2.167969 12.382812 12.929687 21.414062 25.5 21.402343h83.5c11.4375.054688 21.539062-7.441406 24.800781-18.402343l18.699219-61.898438c.898437-3.085937.304687-6.414062-1.597657-9zm-36.300781 65c-.738281 2.480469-3.011719 4.183594-5.601562 4.199219h-83.5c-2.878907.03125-5.347657-2.054688-5.800781-4.898438l-8.597657-48.300781h118.300781zm0 0"/><path d="m184.699219 270c-15.242188 0-27.597657 12.355469-27.597657 27.601562 0 15.242188 12.355469 27.597657 27.597657 27.597657 15.242187 0 27.601562-12.355469 27.601562-27.597657-.03125-15.230468-12.371093-27.570312-27.601562-27.601562zm0 35.300781c-4.195313 0-7.597657-3.402343-7.597657-7.601562 0-4.195313 3.402344-7.597657 7.597657-7.597657 4.199219 0 7.601562 3.402344 7.601562 7.597657 0 4.199219-3.402343 7.601562-7.601562 7.601562zm0 0"/></svg>