<svg height="512pt" viewBox="0 0 512 512" width="512pt" xmlns="http://www.w3.org/2000/svg"><path d="m32 72h64v16h-64zm0 0"/><path d="m112 72h16v16h-16zm0 0"/><path d="m32 248h64v16h-64zm0 0"/><path d="m112 248h16v16h-16zm0 0"/><path d="m32 424h64v16h-64zm0 0"/><path d="m112 424h16v16h-16zm0 0"/><path d="m465.71875 144.28125c-29.5625-29.730469-69.792969-46.398438-111.71875-46.28125-11.4375.03125-22.835938 1.292969-34 3.769531v-101.769531h-320v160h24v16h-24v160h24v16h-24v160h320v-101.753906c8.554688 1.90625 17.25 3.09375 26 3.554687v39.199219l90.535156-75-90.535156-75.015625v46.679687c-14.621094-1.234374-28.738281-5.917968-41.199219-13.664062h15.199219v-160h-15.152344c37.34375-23.027344 85.65625-17.128906 116.359375 14.214844 30.703125 31.339844 35.609375 79.761718 11.816407 116.625l-3.503907 5.433594 45.601563 45.597656 5.535156-7.398438c46.902344-62.910156 40.539062-150.707031-14.945312-206.191406zm-449.71875-128.28125h288v90.191406c-23.125 7.671875-44.152344 20.617188-61.414062 37.808594h-226.585938zm24 144h188.6875c-3.921875 5.109375-7.53125 10.449219-10.800781 16h-177.886719zm-24 32h193.601562c-18.144531 40.738281-18.144531 87.261719 0 128h-193.601562zm24 144h177.886719c3.269531 5.550781 6.878906 10.890625 10.800781 16h-188.6875zm264 160h-288v-128h226.585938c17.253906 17.234375 38.277343 30.222656 61.414062 37.9375zm-18.640625-304h18.640625v128h-18.640625c-33.8125-35.96875-33.8125-92.03125 0-128zm203.199219 109.503906c-3.777344 11.191406-8.949219 21.863282-15.390625 31.769532l-23.328125-23.320313c24.3125-43.253906 16.625-97.433594-18.757813-132.21875-35.382812-34.785156-89.6875-41.542969-132.519531-16.496094-42.832031 25.050781-63.566406 75.691407-50.597656 123.585938 12.964844 47.894531 56.417968 81.15625 106.035156 81.175781h8v-28.984375l49.464844 40.984375-49.464844 40.984375v-20.984375h-8c-61.589844-.0625-116.105469-39.859375-134.925781-98.503906-18.820313-58.644532 2.347656-122.734375 52.398437-158.628906 50.050782-35.894532 117.542969-35.390626 167.050782 1.246093 49.511718 36.636719 69.722656 101.035157 50.027343 159.390625zm0 0"/></svg>